<svg xmlns="http://www.w3.org/2000/svg" viewBox="0 0 32 32" width="32" height="32">
  <!-- Plant pot -->
  <path d="M10 24 h12 l-1 4 h-10 z" fill="#8B4513" stroke="#654321" stroke-width="0.5"/>
  
  <!-- Soil -->
  <ellipse cx="16" cy="24" rx="6" ry="1.5" fill="#4A4A4A"/>
  
  <!-- Plant stem -->
  <path d="M16 24 Q16 20 16 16" stroke="#228B22" stroke-width="2" fill="none"/>
  
  <!-- Leaves -->
  <path d="M16 18 Q12 16 10 18 Q12 20 16 18" fill="#32CD32"/>
  <path d="M16 18 Q20 16 22 18 Q20 20 16 18" fill="#32CD32"/>
  <path d="M16 15 Q13 13 11 15 Q13 17 16 15" fill="#228B22"/>
  <path d="M16 15 Q19 13 21 15 Q19 17 16 15" fill="#228B22"/>
  
  <!-- Water droplets -->
  <path d="M8 8 Q8 6 6 6 Q4 6 4 8 Q4 10 6 10 Q8 10 8 8 z" fill="#4A90E2"/>
  <path d="M28 12 Q28 10 26 10 Q24 10 24 12 Q24 14 26 14 Q28 14 28 12 z" fill="#4A90E2"/>
  <path d="M6 16 Q6 14 4 14 Q2 14 2 16 Q2 18 4 18 Q6 18 6 16 z" fill="#87CEEB"/>
  
  <!-- Small sparkles for freshness -->
  <circle cx="12" cy="10" r="0.5" fill="#87CEEB"/>
  <circle cx="20" cy="8" r="0.5" fill="#87CEEB"/>
  <circle cx="26" cy="20" r="0.5" fill="#4A90E2"/>
</svg>